<?xml version='1.0' encoding='UTF-8'?>
<svg xmlns:svg="http://www.w3.org/2000/svg" xmlns="http://www.w3.org/2000/svg" width="850" height="850" viewBox="0 0 850 850">

  <path fill="#005891" d="M 108.65 0.00 L 475.34 0.00 C 467.60 16.51 461.24 33.64 454.69 50.65 C 445.45 75.74 436.84 101.08 429.67 126.85 C 423.25 126.99 416.82 126.85 410.42 127.44 C 403.32 128.24 396.11 127.71 389.05 129.01 C 378.29 130.88 367.37 131.93 356.80 134.78 C 348.39 137.01 339.82 138.66 331.63 141.63 C 324.13 144.54 316.51 147.11 309.04 150.09 C 298.51 155.12 287.62 159.50 277.67 165.67 C 268.85 171.14 259.60 175.98 251.41 182.41 C 245.78 186.80 239.85 190.81 234.37 195.39 C 224.98 203.98 215.27 212.26 206.77 221.77 C 201.39 228.06 195.34 233.79 190.54 240.55 C 184.95 248.30 178.73 255.63 173.92 263.92 C 168.61 273.00 162.77 281.78 158.30 291.32 C 154.17 300.02 149.87 308.69 146.77 317.83 C 144.17 325.21 140.99 332.40 139.00 339.99 C 137.54 345.58 136.21 351.20 134.78 356.79 C 131.94 367.64 130.66 378.81 128.81 389.85 C 127.68 396.32 128.21 402.92 127.44 409.43 C 126.02 424.23 127.68 439.04 128.25 453.84 C 128.97 461.13 130.49 468.31 131.44 475.57 C 132.80 485.55 135.58 495.25 138.01 505.01 C 140.57 515.22 144.59 524.97 148.15 534.85 C 150.50 541.52 154.01 547.68 156.84 554.15 C 159.88 561.45 163.72 568.38 167.93 575.07 C 172.72 582.58 176.97 590.47 182.55 597.45 C 187.71 603.96 192.23 611.00 197.79 617.20 C 203.42 622.92 208.38 629.25 214.21 634.78 C 219.57 640.45 225.72 645.26 231.27 650.72 C 234.54 653.85 238.22 656.47 241.84 659.16 C 249.78 664.93 257.29 671.33 265.92 676.08 C 274.05 680.58 281.48 686.35 290.13 689.87 C 297.83 693.03 304.92 697.53 312.82 700.23 C 325.28 704.70 337.56 709.82 350.60 712.42 C 363.97 716.79 378.02 717.88 391.81 720.25 C 399.01 721.45 406.34 720.67 413.57 721.44 C 418.58 721.98 423.61 722.09 428.64 722.21 C 439.12 759.38 451.74 795.95 466.25 831.73 C 468.59 837.54 471.19 843.25 473.88 848.91 C 353.59 849.10 233.30 848.95 113.00 848.99 C 79.10 849.14 45.71 832.85 24.73 806.28 C 9.90 787.92 1.46 764.82 0.00 741.34 L 0.00 107.65 C 0.85 97.52 2.48 87.39 5.75 77.74 C 14.20 51.93 32.37 29.50 55.80 15.80 C 71.72 6.17 90.13 1.05 108.65 0.00 Z"/>

  <path fill="#005891" d="M 501.81 0.00 L 740.35 0.00 C 759.35 1.09 778.24 6.46 794.45 16.55 C 820.84 32.37 840.13 59.43 846.48 89.54 C 849.67 103.13 848.93 117.16 849.00 131.00 C 849.00 331.34 848.98 531.67 849.01 732.00 C 849.33 747.10 846.91 762.29 841.42 776.39 C 828.16 811.55 796.24 838.83 759.46 846.48 C 744.54 849.87 729.17 848.85 714.00 849.00 C 642.69 848.94 571.38 849.10 500.07 848.92 C 481.81 807.29 465.33 764.79 452.93 721.01 C 467.28 718.30 481.93 717.13 496.00 713.02 C 511.34 709.76 525.94 704.03 540.56 698.53 C 549.00 694.79 557.07 690.29 565.45 686.41 C 574.39 681.55 583.03 676.11 591.55 670.55 C 602.54 662.24 614.02 654.54 624.10 645.09 C 636.66 633.31 648.95 621.05 659.01 607.01 C 664.04 600.03 669.67 593.48 674.08 586.08 C 679.05 577.96 684.46 570.06 688.40 561.36 C 692.24 552.92 697.19 544.96 700.17 536.14 C 703.69 525.98 708.07 516.09 710.62 505.61 C 713.17 495.02 716.27 484.53 717.70 473.70 C 718.85 464.48 721.19 455.36 721.01 446.01 C 720.84 440.33 721.62 434.69 721.98 429.04 C 722.64 419.98 720.72 411.02 721.00 401.97 C 721.08 394.46 719.42 387.09 718.33 379.70 C 717.21 372.08 716.22 364.40 714.06 356.99 C 711.50 347.87 709.93 338.45 706.39 329.62 C 702.43 319.61 699.55 309.14 694.34 299.66 C 690.60 292.91 688.27 285.45 684.04 278.98 C 677.22 268.38 671.49 256.99 663.09 247.50 C 654.44 251.65 645.99 256.22 637.32 260.34 C 640.92 265.20 644.48 270.09 647.96 275.02 C 651.86 280.88 655.19 287.09 659.04 292.98 C 662.65 298.38 664.71 304.58 667.67 310.33 C 669.82 314.60 672.05 318.85 673.68 323.35 C 677.54 334.00 681.77 344.55 684.40 355.59 C 688.67 370.85 690.91 386.57 692.68 402.29 C 693.05 409.86 693.13 417.44 693.72 425.00 C 692.80 436.72 693.30 448.55 691.14 460.16 C 688.37 481.66 683.05 502.85 675.03 523.01 C 672.04 532.13 666.90 540.32 663.44 549.25 C 658.52 541.21 653.71 533.11 648.95 524.98 C 610.23 459.36 571.26 393.89 532.65 328.20 C 549.89 299.99 567.73 272.15 585.06 244.00 C 588.16 238.79 594.34 237.10 599.36 234.36 C 620.43 223.56 641.68 213.08 662.61 202.00 C 650.96 193.36 638.51 185.86 626.84 177.26 C 637.55 160.20 648.11 143.04 658.95 126.06 C 654.57 123.16 650.13 120.35 645.65 117.61 C 640.97 123.77 637.26 130.58 633.07 137.07 C 626.57 147.43 620.14 157.84 613.62 168.20 C 602.17 161.27 591.56 153.05 580.20 145.98 C 578.35 172.66 576.77 199.36 575.00 226.04 C 574.85 229.75 573.23 233.15 571.22 236.20 C 555.04 261.44 539.64 287.19 523.31 312.33 C 496.26 267.34 469.91 221.93 442.93 176.91 C 442.02 175.37 441.55 173.57 441.92 171.79 C 442.73 166.67 444.56 161.79 445.95 156.82 C 454.69 156.86 463.19 159.08 471.82 160.17 C 479.03 161.04 486.05 162.95 493.01 164.94 C 508.41 168.55 523.10 174.55 537.64 180.68 C 537.84 170.44 538.87 160.25 539.31 150.03 C 525.07 144.09 510.43 139.12 495.40 135.58 C 481.85 131.70 467.75 130.65 453.96 127.99 C 460.64 104.70 468.67 81.82 477.05 59.09 C 484.68 39.15 492.42 19.20 501.81 0.00 Z"/>

  <path fill="#005891" d="M 395.25 157.31 C 401.33 156.84 407.46 157.00 413.50 155.99 C 411.72 160.17 409.48 164.13 407.01 167.93 C 345.06 274.64 282.81 381.18 220.89 487.90 C 284.49 488.25 348.09 487.71 411.68 488.17 C 412.36 493.41 412.80 498.68 412.92 503.96 C 345.71 504.14 278.49 503.78 211.28 504.14 C 202.86 518.99 194.12 533.65 185.64 548.46 C 181.47 542.19 178.91 535.08 175.77 528.28 C 167.71 508.12 161.30 487.16 158.46 465.58 C 157.79 460.36 156.64 455.21 156.12 449.97 C 155.84 443.94 156.27 437.86 155.25 431.87 C 154.03 423.56 156.08 415.31 156.00 407.00 C 155.60 397.35 158.25 387.95 159.38 378.43 C 160.41 368.98 163.46 359.96 165.78 350.79 C 167.86 341.24 172.15 332.39 175.19 323.14 C 180.18 312.04 184.93 300.76 191.42 290.42 C 195.65 283.67 199.28 276.52 204.26 270.27 C 211.53 260.92 218.03 250.86 226.73 242.73 C 231.04 237.71 235.26 232.55 240.64 228.61 C 247.73 221.64 255.33 215.21 263.42 209.42 C 279.96 196.40 298.78 186.75 317.71 177.73 C 335.29 170.66 353.37 164.66 371.98 160.98 C 379.72 159.66 387.50 158.54 395.25 157.31 Z"/>

  <path fill="#005891" d="M 435.20 200.69 C 446.65 219.12 457.46 237.94 468.44 256.64 C 479.18 274.60 489.84 292.60 500.52 310.59 C 504.42 317.33 508.60 323.92 512.16 330.85 C 501.73 346.66 492.18 363.03 482.00 378.99 C 460.10 414.09 438.09 449.11 416.27 484.25 C 415.14 485.83 413.76 487.19 412.48 488.63 C 410.96 472.81 410.90 456.87 410.56 440.99 C 409.42 360.31 417.43 279.42 435.20 200.69 Z"/>

  <path fill="#005891" d="M 521.52 345.99 C 541.60 380.39 562.10 414.55 582.23 448.92 C 589.93 461.90 597.83 474.77 605.19 487.95 C 547.76 488.06 490.32 487.97 432.89 488.00 C 462.25 440.55 492.00 393.34 521.52 345.99 Z"/>

  <path fill="#005891" d="M 413.53 504.02 C 480.67 503.99 547.81 503.99 614.95 504.02 C 625.52 522.03 636.26 539.95 646.85 557.95 C 629.55 557.98 612.25 558.02 594.96 557.94 C 583.98 557.12 572.98 557.47 562.00 557.41 C 514.26 557.39 466.53 557.47 418.80 557.33 C 416.37 539.64 414.42 521.85 413.53 504.02 Z"/>

  <path fill="#005891" d="M 202.95 578.08 C 267.83 578.18 332.71 578.25 397.59 578.32 C 403.03 617.32 411.52 655.81 421.01 694.00 C 412.68 694.34 404.45 692.76 396.12 692.78 C 385.35 690.94 374.37 690.10 363.79 687.22 C 355.71 684.99 347.37 683.62 339.56 680.50 C 330.20 676.95 320.55 674.02 311.66 669.36 C 303.78 665.22 295.49 661.90 288.06 656.95 C 273.45 648.72 260.01 638.57 247.30 627.69 C 241.63 621.67 234.56 617.12 229.45 610.56 C 226.83 607.20 223.70 604.31 220.83 601.18 C 214.39 593.87 208.62 585.99 202.95 578.08 Z"/>

  <path fill="#005891" d="M 421.35 578.26 C 475.57 578.39 529.78 578.34 584.00 578.35 C 604.61 578.20 625.22 578.70 645.83 578.27 C 638.47 588.02 631.39 598.06 622.75 606.75 C 618.47 610.83 615.20 615.89 610.38 619.41 C 596.93 632.17 582.64 644.29 566.43 653.43 C 561.17 656.50 556.22 660.11 550.68 662.70 C 540.92 667.36 531.51 672.90 521.13 676.15 C 502.45 683.28 483.02 688.68 463.15 691.20 C 457.17 692.23 451.17 693.36 445.07 693.01 C 434.99 655.24 427.41 616.86 421.35 578.26 Z"/>

</svg>
